# xmcd
#
# Track frame offsets: 
#        150
#        20281
#        39502
#        53913
#        68176
#        83420
#        99016
#        114159
#        129417
#        148453
#        167956
#        185170
#        198526
#        215583
#        231449
#
# Disc length: 3310 seconds
#
# Revision: 0
# Processed by: cddbd v1.5.2PL0 Copyright (c) Steve Scherf et al.
# Submitted via: ExactAudioCopy v1.3
#
DISCID=d40cec0f
DTITLE=Various Artist - 昭和 永遠の名曲大全集 1946-1963 Disc 3 COCP-40151-4
DYEAR=1900
DGENRE=JPop
TTITLE0=島倉千代子 - りんどう峠
TTITLE1=島倉千代子 - 東京だョおっ母さん
TTITLE2=美空ひばり - 港町十三番地
TTITLE3=小坂一也 - 青春サイクリング
TTITLE4=若山彰 - 喜びも悲しみも幾歳月
TTITLE5=初代 コロムビア・ローズ - 東京のバスガール
TTITLE6=青木光一 - 柿の木坂の家
TTITLE7=神戸一郎 - 銀座九丁目水の上
TTITLE8=村田英雄 - 無法松の一生(度胸千両入り)
TTITLE9=島倉千代子 - からたち日記
TTITLE10=村田英雄 - 人生劇場
TTITLE11=守屋浩 - 僕は泣いちっち
TTITLE12=小林旭 - ギターを持った渡り鳥
TTITLE13=花村菊江 - 潮来花嫁さん
TTITLE14=井上ひろし - 雨に咲く花
EXTD=
EXTT0=
EXTT1=
EXTT2=
EXTT3=
EXTT4=
EXTT5=
EXTT6=
EXTT7=
EXTT8=
EXTT9=
EXTT10=
EXTT11=
EXTT12=
EXTT13=
EXTT14=
PLAYORDER=
